<svg id="google-fill" xmlns="http://www.w3.org/2000/svg" width="20.658" height="20.658" viewBox="0 0 20.658 20.658">
  <path id="Path_1242" data-name="Path 1242" d="M0,0H20.658V20.658H0Z" fill="none"/>
  <path id="Path_1243" data-name="Path 1243" d="M2.916,6.743A8.6,8.6,0,0,1,10.608,2a8.265,8.265,0,0,1,5.759,2.242L13.9,6.711a4.652,4.652,0,0,0-3.291-1.288,5.171,5.171,0,0,0-4.816,6.82,5.192,5.192,0,0,0,7.731,2.727,3.96,3.96,0,0,0,1.718-2.6H10.608V9.043h8.107a9.9,9.9,0,0,1,.157,1.76A8.39,8.39,0,0,1,16.3,17.13a8.214,8.214,0,0,1-5.7,2.086A8.609,8.609,0,0,1,2.916,6.743Z" transform="translate(-0.278 -0.278)" fill="#fe5f55"/>
</svg>
